<?xml version="1.0" encoding="UTF-8"?>
<svg width="227px" height="233px" viewBox="0 0 227 233" version="1.1" xmlns="http://www.w3.org/2000/svg" xmlns:xlink="http://www.w3.org/1999/xlink">
    <title>Untitled 3@3x</title>
    <g id="Page-1" stroke="none" stroke-width="1" fill="none" fill-rule="evenodd">
        <path d="M86.428,0 L86.428,0 C82.958,0 80.12,2.838 80.12,6.308 L80.12,26.283 C80.12,29.752 82.958,32.59 86.428,32.59 C89.897,32.59 92.736,29.752 92.736,26.283 L92.736,6.308 C92.736,2.838 89.897,0 86.428,0" id="Fill-45" fill="#F8C823"></path>
        <path d="M24.443,26.02 L24.443,26.02 C21.989,28.473 21.989,32.487 24.443,34.94 L38.567,49.065 C41.02,51.518 45.034,51.518 47.487,49.065 C49.941,46.612 49.941,42.597 47.487,40.144 L33.363,26.02 C30.91,23.567 26.896,23.567 24.443,26.02" id="Fill-46" fill="#F8C823"></path>
        <path d="M146.053,23.775 L146.053,23.775 C143.6,21.322 139.585,21.322 137.132,23.775 L123.008,37.9 C120.555,40.353 120.555,44.367 123.008,46.82 C125.461,49.274 129.475,49.274 131.928,46.82 L146.053,32.696 C148.506,30.243 148.506,26.229 146.053,23.775" id="Fill-47" fill="#F8C823"></path>
        <path d="M32.59,84.893 L32.59,84.893 C32.59,81.424 29.752,78.585 26.282,78.585 L6.307,78.585 C2.838,78.585 0,81.424 0,84.893 C0,88.362 2.838,91.201 6.307,91.201 L26.282,91.201 C29.752,91.201 32.59,88.362 32.59,84.893" id="Fill-48" fill="#F8C823"></path>
        <path d="M64.595,107.768 C67.336,107.768 70.061,108.079 72.715,108.686 C75.411,98.84 80.815,89.887 88.441,82.819 C98.671,73.339 111.991,68.117 125.947,68.117 C126.977,68.117 128,68.152 129.019,68.208 C122.352,51.203 105.797,39.161 86.428,39.161 C61.171,39.161 40.696,59.636 40.696,84.893 C40.696,94.711 43.791,103.806 49.057,111.257 C53.773,109.023 59.039,107.768 64.595,107.768" id="Fill-49" fill="#F8C823"></path>
        <path d="M167.358,86.783 C169.852,85.94 171.663,83.578 171.663,80.809 C171.663,77.339 168.824,74.501 165.355,74.501 L151.796,74.501 C157.666,77.604 162.941,81.76 167.358,86.783" id="Fill-50" fill="#F8C823"></path>
        <path d="M28.175,144.187 C28.175,137.951 29.753,132.077 32.527,126.941 L22.779,136.688 C20.326,139.141 20.326,143.156 22.779,145.609 C24.28,147.11 26.364,147.687 28.318,147.352 C28.226,146.306 28.175,145.251 28.175,144.187" id="Fill-51" fill="#F8C823"></path>
        <path d="M226.646,136.04 C226.646,115.78 210.222,99.357 189.963,99.357 C182.494,99.357 175.551,101.595 169.755,105.429 C162.702,88.167 145.746,76.002 125.947,76.002 C101.122,76.002 80.765,95.124 78.796,119.441 C74.613,117.035 69.767,115.652 64.595,115.652 C48.835,115.652 36.06,128.428 36.06,144.187 C36.06,157.191 44.762,168.156 56.658,171.595 C57.678,172.304 58.911,172.722 60.24,172.722 L192.705,172.722 C193.377,172.722 194.024,172.613 194.633,172.416 C212.686,170.121 226.646,154.716 226.646,136.04" id="Fill-52" fill="#F0F1F2"></path>
        <path d="M67.39,204.859 L67.39,204.859 C65.959,203.428 65.959,201.087 67.39,199.656 L79.655,187.39 C81.086,185.959 83.428,185.959 84.859,187.39 C86.29,188.821 86.29,191.163 84.859,192.594 L72.593,204.859 C71.162,206.29 68.821,206.29 67.39,204.859" id="Fill-53" fill="#2B8FB8"></path>
        <path d="M100.506,204.859 L100.506,204.859 C99.075,203.428 99.075,201.087 100.506,199.656 L112.772,187.39 C114.203,185.959 116.544,185.959 117.975,187.39 C119.406,188.821 119.406,191.163 117.975,192.594 L105.709,204.859 C104.278,206.29 101.937,206.29 100.506,204.859" id="Fill-54" fill="#2B8FB8"></path>
        <path d="M133.622,204.859 L133.622,204.859 C132.191,203.428 132.191,201.087 133.622,199.656 L145.888,187.39 C147.319,185.959 149.66,185.959 151.091,187.39 C152.522,188.821 152.522,191.163 151.091,192.594 L138.826,204.859 C137.395,206.29 135.053,206.29 133.622,204.859" id="Fill-55" fill="#2B8FB8"></path>
        <path d="M166.738,204.859 L166.738,204.859 C165.307,203.428 165.307,201.087 166.738,199.656 L179.004,187.39 C180.435,185.959 182.777,185.959 184.208,187.39 C185.639,188.821 185.639,191.163 184.208,192.594 L171.942,204.859 C170.511,206.29 168.169,206.29 166.738,204.859" id="Fill-56" fill="#2B8FB8"></path>
        <path d="M40.318,231.843 L40.318,231.843 C38.887,230.412 38.887,228.07 40.318,226.639 L52.584,214.373 C54.015,212.942 56.357,212.942 57.788,214.373 C59.219,215.804 59.219,218.146 57.788,219.577 L45.522,231.843 C44.091,233.274 41.749,233.274 40.318,231.843" id="Fill-57" fill="#2B8FB8"></path>
        <path d="M73.435,231.843 L73.435,231.843 C72.004,230.412 72.004,228.07 73.435,226.639 L85.7,214.373 C87.131,212.942 89.473,212.942 90.904,214.373 C92.335,215.804 92.335,218.146 90.904,219.577 L78.638,231.843 C77.207,233.274 74.866,233.274 73.435,231.843" id="Fill-58" fill="#2B8FB8"></path>
        <path d="M106.551,231.843 L106.551,231.843 C105.12,230.412 105.12,228.07 106.551,226.639 L118.817,214.373 C120.248,212.942 122.589,212.942 124.02,214.373 C125.451,215.804 125.451,218.146 124.02,219.577 L111.754,231.843 C110.323,233.274 107.982,233.274 106.551,231.843" id="Fill-59" fill="#2B8FB8"></path>
        <path d="M139.667,231.843 L139.667,231.843 C138.236,230.412 138.236,228.07 139.667,226.639 L151.933,214.373 C153.364,212.942 155.705,212.942 157.136,214.373 C158.567,215.804 158.567,218.146 157.136,219.577 L144.871,231.843 C143.44,233.274 141.098,233.274 139.667,231.843" id="Fill-60" fill="#2B8FB8"></path>
    </g>
</svg>