<?xml version="1.0" encoding="UTF-8"?>
<svg width="191px" height="142px" viewBox="0 0 191 142" version="1.1" xmlns="http://www.w3.org/2000/svg" xmlns:xlink="http://www.w3.org/1999/xlink">
    <title>Untitled 3@3x</title>
    <g id="Page-1" stroke="none" stroke-width="1" fill="none" fill-rule="evenodd">
        <path d="M190.586,60.038 C190.586,39.778 174.162,23.355 153.903,23.355 C146.434,23.355 139.49,25.593 133.695,29.426 C126.641,12.165 109.686,0 89.886,0 C65.062,0 44.705,19.122 42.736,43.439 C38.553,41.033 33.707,39.65 28.535,39.65 C12.775,39.65 0,52.426 0,68.185 C0,81.189 8.702,92.154 20.598,95.593 C21.617,96.302 22.851,96.72 24.18,96.72 L156.644,96.72 C157.317,96.72 157.964,96.611 158.573,96.414 C176.625,94.119 190.586,78.714 190.586,60.038" id="Fill-32" fill="#C7C7C3"></path>
        <path d="M42.784,114.257 L42.784,114.257 C40.76,114.257 39.105,112.602 39.105,110.578 L39.105,109.049 C39.105,107.025 40.76,105.369 42.784,105.369 C44.808,105.369 46.464,107.025 46.464,109.049 L46.464,110.578 C46.464,112.602 44.808,114.257 42.784,114.257" id="Fill-33" fill="#2B8FB8"></path>
        <path d="M75.9,114.257 L75.9,114.257 C73.877,114.257 72.221,112.602 72.221,110.578 L72.221,109.049 C72.221,107.025 73.877,105.369 75.9,105.369 C77.924,105.369 79.58,107.025 79.58,109.049 L79.58,110.578 C79.58,112.602 77.924,114.257 75.9,114.257" id="Fill-34" fill="#2B8FB8"></path>
        <path d="M109.017,114.257 L109.017,114.257 C106.993,114.257 105.337,112.602 105.337,110.578 L105.337,109.049 C105.337,107.025 106.993,105.369 109.017,105.369 C111.04,105.369 112.696,107.025 112.696,109.049 L112.696,110.578 C112.696,112.602 111.04,114.257 109.017,114.257" id="Fill-35" fill="#2B8FB8"></path>
        <path d="M142.133,114.257 L142.133,114.257 C140.109,114.257 138.453,112.602 138.453,110.578 L138.453,109.049 C138.453,107.025 140.109,105.369 142.133,105.369 C144.157,105.369 145.812,107.025 145.812,109.049 L145.812,110.578 C145.812,112.602 144.157,114.257 142.133,114.257" id="Fill-36" fill="#2B8FB8"></path>
        <path d="M43.131,128.673 L43.131,128.673 C41.107,128.673 39.451,127.018 39.451,124.994 L39.451,123.465 C39.451,121.441 41.107,119.785 43.131,119.785 C45.154,119.785 46.81,121.441 46.81,123.465 L46.81,124.994 C46.81,127.018 45.154,128.673 43.131,128.673" id="Fill-37" fill="#2B8FB8"></path>
        <path d="M76.247,128.673 L76.247,128.673 C74.223,128.673 72.567,127.018 72.567,124.994 L72.567,123.465 C72.567,121.441 74.223,119.785 76.247,119.785 C78.27,119.785 79.926,121.441 79.926,123.465 L79.926,124.994 C79.926,127.018 78.27,128.673 76.247,128.673" id="Fill-38" fill="#2B8FB8"></path>
        <path d="M109.363,128.673 L109.363,128.673 C107.339,128.673 105.683,127.018 105.683,124.994 L105.683,123.465 C105.683,121.441 107.339,119.785 109.363,119.785 C111.387,119.785 113.042,121.441 113.042,123.465 L113.042,124.994 C113.042,127.018 111.387,128.673 109.363,128.673" id="Fill-39" fill="#2B8FB8"></path>
        <path d="M142.479,128.673 L142.479,128.673 C140.455,128.673 138.799,127.018 138.799,124.994 L138.799,123.465 C138.799,121.441 140.455,119.785 142.479,119.785 C144.503,119.785 146.159,121.441 146.159,123.465 L146.159,124.994 C146.159,127.018 144.503,128.673 142.479,128.673" id="Fill-40" fill="#2B8FB8"></path>
        <path d="M43.131,141.703 L43.131,141.703 C41.107,141.703 39.451,140.047 39.451,138.024 L39.451,136.495 C39.451,134.471 41.107,132.815 43.131,132.815 C45.154,132.815 46.81,134.471 46.81,136.495 L46.81,138.024 C46.81,140.047 45.154,141.703 43.131,141.703" id="Fill-41" fill="#2B8FB8"></path>
        <path d="M76.247,141.703 L76.247,141.703 C74.223,141.703 72.567,140.047 72.567,138.024 L72.567,136.495 C72.567,134.471 74.223,132.815 76.247,132.815 C78.27,132.815 79.926,134.471 79.926,136.495 L79.926,138.024 C79.926,140.047 78.27,141.703 76.247,141.703" id="Fill-42" fill="#2B8FB8"></path>
        <path d="M109.363,141.703 L109.363,141.703 C107.339,141.703 105.683,140.047 105.683,138.024 L105.683,136.495 C105.683,134.471 107.339,132.815 109.363,132.815 C111.387,132.815 113.042,134.471 113.042,136.495 L113.042,138.024 C113.042,140.047 111.387,141.703 109.363,141.703" id="Fill-43" fill="#2B8FB8"></path>
        <path d="M142.479,141.703 L142.479,141.703 C140.455,141.703 138.799,140.047 138.799,138.024 L138.799,136.495 C138.799,134.471 140.455,132.815 142.479,132.815 C144.503,132.815 146.159,134.471 146.159,136.495 L146.159,138.024 C146.159,140.047 144.503,141.703 142.479,141.703" id="Fill-44" fill="#2B8FB8"></path>
    </g>
</svg>