<?xml version="1.0" encoding="UTF-8"?>
<svg width="125px" height="125px" viewBox="0 0 125 125" version="1.1" xmlns="http://www.w3.org/2000/svg" xmlns:xlink="http://www.w3.org/1999/xlink">
    <title>Untitled 3@3x</title>
    <g id="Page-1" stroke="none" stroke-width="1" fill="none" fill-rule="evenodd">
        <path d="M62.268,63.253 C61.542,63.253 60.954,62.665 60.954,61.939 L60.954,1.314 C60.954,0.588 61.542,0 62.268,0 C62.994,0 63.582,0.588 63.582,1.314 L63.582,61.939 C63.582,62.665 62.994,63.253 62.268,63.253" id="Fill-76" fill="#F0F1F2"></path>
        <path d="M62.268,14.543 C61.932,14.543 61.595,14.414 61.339,14.158 C60.825,13.645 60.825,12.813 61.339,12.299 L71.326,2.312 C71.839,1.799 72.671,1.799 73.184,2.312 C73.698,2.825 73.698,3.657 73.184,4.17 L63.197,14.158 C62.941,14.414 62.604,14.543 62.268,14.543" id="Fill-77" fill="#F0F1F2"></path>
        <path d="M62.268,14.543 C61.932,14.543 61.595,14.414 61.339,14.158 L51.789,4.608 C51.276,4.095 51.276,3.263 51.789,2.75 C52.302,2.237 53.135,2.237 53.648,2.75 L63.197,12.299 C63.71,12.813 63.71,13.645 63.197,14.158 C62.941,14.414 62.604,14.543 62.268,14.543" id="Fill-78" fill="#F0F1F2"></path>
        <path d="M62.268,34.014 C61.932,34.014 61.595,33.885 61.339,33.629 C60.825,33.116 60.825,32.284 61.339,31.77 L68.61,24.499 C69.123,23.986 69.956,23.986 70.469,24.499 C70.982,25.012 70.982,25.844 70.469,26.357 L63.197,33.629 C62.941,33.885 62.604,34.014 62.268,34.014" id="Fill-79" fill="#F0F1F2"></path>
        <path d="M62.268,33.86 C61.932,33.86 61.595,33.732 61.339,33.475 L54.374,26.511 C53.86,25.997 53.86,25.165 54.374,24.652 C54.887,24.139 55.719,24.139 56.232,24.652 L63.197,31.617 C63.71,32.13 63.71,32.962 63.197,33.475 C62.941,33.732 62.604,33.86 62.268,33.86" id="Fill-80" fill="#F0F1F2"></path>
        <path d="M62.312,124.623 C61.586,124.623 60.998,124.035 60.998,123.309 L60.998,62.684 C60.998,61.958 61.586,61.37 62.312,61.37 C63.038,61.37 63.626,61.958 63.626,62.684 L63.626,123.309 C63.626,124.035 63.038,124.623 62.312,124.623" id="Fill-81" fill="#F0F1F2"></path>
        <path d="M72.299,122.696 C71.963,122.696 71.626,122.568 71.37,122.311 L61.383,112.323 C60.869,111.81 60.869,110.978 61.383,110.465 C61.895,109.952 62.728,109.952 63.241,110.465 L73.228,120.453 C73.741,120.966 73.741,121.798 73.228,122.311 C72.971,122.568 72.635,122.696 72.299,122.696" id="Fill-82" fill="#F0F1F2"></path>
        <path d="M52.762,122.258 C52.426,122.258 52.089,122.129 51.833,121.873 C51.32,121.36 51.32,120.528 51.833,120.014 L61.383,110.465 C61.895,109.952 62.728,109.952 63.241,110.465 C63.754,110.978 63.754,111.81 63.241,112.323 L53.691,121.873 C53.435,122.129 53.098,122.258 52.762,122.258" id="Fill-83" fill="#F0F1F2"></path>
        <path d="M69.583,100.509 C69.247,100.509 68.91,100.38 68.654,100.124 L61.383,92.852 C60.869,92.339 60.869,91.507 61.383,90.994 C61.895,90.481 62.728,90.481 63.241,90.994 L70.512,98.266 C71.026,98.779 71.026,99.611 70.512,100.124 C70.256,100.38 69.919,100.509 69.583,100.509" id="Fill-84" fill="#F0F1F2"></path>
        <path d="M55.347,100.356 C55.011,100.356 54.674,100.227 54.418,99.971 C53.904,99.458 53.904,98.625 54.418,98.112 L61.383,91.147 C61.895,90.634 62.728,90.634 63.241,91.147 C63.754,91.661 63.754,92.493 63.241,93.006 L56.276,99.971 C56.02,100.227 55.683,100.356 55.347,100.356" id="Fill-85" fill="#F0F1F2"></path>
        <path d="M123.309,63.012 L62.684,63.012 C61.958,63.012 61.37,62.424 61.37,61.698 C61.37,60.972 61.958,60.384 62.684,60.384 L123.309,60.384 C124.035,60.384 124.623,60.972 124.623,61.698 C124.623,62.424 124.035,63.012 123.309,63.012" id="Fill-86" fill="#F0F1F2"></path>
        <path d="M121.382,73 C121.046,73 120.709,72.871 120.453,72.615 L110.465,62.627 C109.952,62.114 109.952,61.282 110.465,60.769 C110.979,60.256 111.81,60.256 112.323,60.769 L122.311,70.757 C122.824,71.27 122.824,72.102 122.311,72.615 C122.054,72.871 121.718,73 121.382,73" id="Fill-87" fill="#F0F1F2"></path>
        <path d="M111.394,63.012 C111.058,63.012 110.722,62.884 110.465,62.627 C109.952,62.114 109.952,61.282 110.465,60.769 L120.015,51.22 C120.528,50.706 121.36,50.706 121.873,51.22 C122.386,51.733 122.386,52.565 121.873,53.078 L112.323,62.627 C112.067,62.884 111.731,63.012 111.394,63.012" id="Fill-88" fill="#F0F1F2"></path>
        <path d="M99.195,70.284 C98.859,70.284 98.523,70.155 98.266,69.899 L90.994,62.627 C90.481,62.114 90.481,61.282 90.994,60.769 C91.508,60.256 92.339,60.256 92.853,60.769 L100.124,68.041 C100.637,68.554 100.637,69.386 100.124,69.899 C99.867,70.155 99.531,70.284 99.195,70.284" id="Fill-89" fill="#F0F1F2"></path>
        <path d="M92.077,63.012 C91.74,63.012 91.404,62.884 91.147,62.627 C90.634,62.114 90.634,61.282 91.147,60.769 L98.112,53.804 C98.626,53.291 99.457,53.291 99.971,53.804 C100.484,54.317 100.484,55.149 99.971,55.662 L93.006,62.627 C92.749,62.884 92.413,63.012 92.077,63.012" id="Fill-90" fill="#F0F1F2"></path>
        <path d="M61.939,63.056 L1.314,63.056 C0.588,63.056 0,62.468 0,61.742 C0,61.016 0.588,60.428 1.314,60.428 L61.939,60.428 C62.665,60.428 63.253,61.016 63.253,61.742 C63.253,62.468 62.665,63.056 61.939,63.056" id="Fill-91" fill="#F0F1F2"></path>
        <path d="M3.241,73.043 C2.905,73.043 2.569,72.915 2.312,72.658 C1.799,72.145 1.799,71.313 2.312,70.8 L12.3,60.813 C12.813,60.299 13.645,60.299 14.158,60.813 C14.671,61.326 14.671,62.158 14.158,62.671 L4.171,72.658 C3.914,72.915 3.578,73.043 3.241,73.043" id="Fill-92" fill="#F0F1F2"></path>
        <path d="M13.229,63.056 C12.893,63.056 12.556,62.928 12.3,62.671 L2.75,53.122 C2.237,52.609 2.237,51.777 2.75,51.263 C3.263,50.75 4.096,50.75 4.608,51.263 L14.158,60.813 C14.671,61.326 14.671,62.158 14.158,62.671 C13.902,62.928 13.565,63.056 13.229,63.056" id="Fill-93" fill="#F0F1F2"></path>
        <path d="M25.428,70.328 C25.092,70.328 24.755,70.199 24.499,69.943 C23.986,69.43 23.986,68.597 24.499,68.084 L31.771,60.813 C32.283,60.299 33.116,60.299 33.629,60.813 C34.142,61.326 34.142,62.158 33.629,62.671 L26.357,69.943 C26.101,70.199 25.764,70.328 25.428,70.328" id="Fill-94" fill="#F0F1F2"></path>
        <path d="M32.547,63.056 C32.21,63.056 31.874,62.928 31.617,62.671 L24.653,55.706 C24.139,55.193 24.139,54.361 24.653,53.848 C25.165,53.335 25.998,53.335 26.511,53.848 L33.476,60.813 C33.989,61.326 33.989,62.158 33.476,62.671 C33.219,62.928 32.883,63.056 32.547,63.056" id="Fill-95" fill="#F0F1F2"></path>
        <path d="M105.397,105.819 C105.06,105.819 104.724,105.691 104.467,105.434 L61.599,62.565 C61.085,62.052 61.085,61.22 61.599,60.707 C62.111,60.194 62.944,60.194 63.457,60.707 L106.326,103.576 C106.839,104.089 106.839,104.921 106.326,105.434 C106.069,105.691 105.733,105.819 105.397,105.819" id="Fill-96" fill="#F0F1F2"></path>
        <path d="M96.971,111.518 C96.245,111.518 95.657,110.93 95.657,110.204 L95.657,96.08 C95.657,95.354 96.245,94.766 96.971,94.766 C97.697,94.766 98.285,95.354 98.285,96.08 L98.285,110.204 C98.285,110.93 97.697,111.518 96.971,111.518" id="Fill-97" fill="#F0F1F2"></path>
        <path d="M110.476,97.394 L96.971,97.394 C96.245,97.394 95.657,96.806 95.657,96.08 C95.657,95.354 96.245,94.766 96.971,94.766 L110.476,94.766 C111.202,94.766 111.79,95.354 111.79,96.08 C111.79,96.806 111.202,97.394 110.476,97.394" id="Fill-98" fill="#F0F1F2"></path>
        <path d="M83.203,93.909 C82.477,93.909 81.889,93.321 81.889,92.595 L81.889,82.312 C81.889,81.586 82.477,80.998 83.203,80.998 C83.929,80.998 84.517,81.586 84.517,82.312 L84.517,92.595 C84.517,93.321 83.929,93.909 83.203,93.909" id="Fill-99" fill="#F0F1F2"></path>
        <path d="M93.161,83.734 L83.311,83.734 C82.586,83.734 81.997,83.146 81.997,82.42 C81.997,81.694 82.586,81.106 83.311,81.106 L93.161,81.106 C93.887,81.106 94.475,81.694 94.475,82.42 C94.475,83.146 93.887,83.734 93.161,83.734" id="Fill-100" fill="#F0F1F2"></path>
        <path d="M61.97,62.455 C61.634,62.455 61.298,62.326 61.041,62.07 L18.172,19.201 C17.659,18.688 17.659,17.856 18.172,17.343 C18.685,16.83 19.518,16.83 20.031,17.343 L62.9,60.211 C63.413,60.724 63.413,61.557 62.9,62.07 C62.643,62.326 62.307,62.455 61.97,62.455" id="Fill-101" fill="#F0F1F2"></path>
        <path d="M27.527,28.011 L13.402,28.011 C12.677,28.011 12.088,27.423 12.088,26.697 C12.088,25.971 12.677,25.383 13.402,25.383 L27.527,25.383 C28.253,25.383 28.841,25.971 28.841,26.697 C28.841,27.423 28.253,28.011 27.527,28.011" id="Fill-102" fill="#F0F1F2"></path>
        <path d="M27.527,28.011 C26.801,28.011 26.213,27.423 26.213,26.697 L26.213,13.192 C26.213,12.466 26.801,11.878 27.527,11.878 C28.253,11.878 28.841,12.466 28.841,13.192 L28.841,26.697 C28.841,27.423 28.253,28.011 27.527,28.011" id="Fill-103" fill="#F0F1F2"></path>
        <path d="M41.295,41.779 L31.011,41.779 C30.285,41.779 29.697,41.191 29.697,40.465 C29.697,39.739 30.285,39.151 31.011,39.151 L41.295,39.151 C42.021,39.151 42.609,39.739 42.609,40.465 C42.609,41.191 42.021,41.779 41.295,41.779" id="Fill-104" fill="#F0F1F2"></path>
        <path d="M41.187,41.671 C40.461,41.671 39.872,41.083 39.872,40.357 L39.872,30.507 C39.872,29.781 40.461,29.193 41.187,29.193 C41.912,29.193 42.501,29.781 42.501,30.507 L42.501,40.357 C42.501,41.083 41.912,41.671 41.187,41.671" id="Fill-105" fill="#F0F1F2"></path>
        <path d="M62.622,62.424 C62.286,62.424 61.949,62.296 61.693,62.039 C61.18,61.526 61.18,60.694 61.693,60.181 L104.561,17.312 C105.075,16.799 105.906,16.799 106.42,17.312 C106.933,17.825 106.933,18.657 106.42,19.17 L63.551,62.039 C63.295,62.296 62.958,62.424 62.622,62.424" id="Fill-106" fill="#F0F1F2"></path>
        <path d="M111.19,27.98 L97.066,27.98 C96.34,27.98 95.752,27.392 95.752,26.666 C95.752,25.94 96.34,25.352 97.066,25.352 L111.19,25.352 C111.916,25.352 112.504,25.94 112.504,26.666 C112.504,27.392 111.916,27.98 111.19,27.98" id="Fill-107" fill="#F0F1F2"></path>
        <path d="M97.066,27.98 C96.34,27.98 95.752,27.392 95.752,26.666 L95.752,13.161 C95.752,12.435 96.34,11.847 97.066,11.847 C97.792,11.847 98.38,12.435 98.38,13.161 L98.38,26.666 C98.38,27.392 97.792,27.98 97.066,27.98" id="Fill-108" fill="#F0F1F2"></path>
        <path d="M93.581,41.748 L83.298,41.748 C82.572,41.748 81.983,41.16 81.983,40.434 C81.983,39.708 82.572,39.12 83.298,39.12 L93.581,39.12 C94.307,39.12 94.895,39.708 94.895,40.434 C94.895,41.16 94.307,41.748 93.581,41.748" id="Fill-109" fill="#F0F1F2"></path>
        <path d="M83.406,41.64 C82.68,41.64 82.092,41.052 82.092,40.326 L82.092,30.476 C82.092,29.75 82.68,29.162 83.406,29.162 C84.132,29.162 84.72,29.75 84.72,30.476 L84.72,40.326 C84.72,41.052 84.132,41.64 83.406,41.64" id="Fill-110" fill="#F0F1F2"></path>
        <path d="M19.258,105.85 C18.922,105.85 18.585,105.721 18.329,105.465 C17.815,104.952 17.815,104.12 18.329,103.607 L61.197,60.738 C61.71,60.225 62.543,60.225 63.056,60.738 C63.569,61.251 63.569,62.083 63.056,62.596 L20.187,105.465 C19.931,105.721 19.594,105.85 19.258,105.85" id="Fill-111" fill="#F0F1F2"></path>
        <path d="M27.683,111.549 C26.957,111.549 26.369,110.961 26.369,110.235 L26.369,96.111 C26.369,95.385 26.957,94.797 27.683,94.797 C28.409,94.797 28.997,95.385 28.997,96.111 L28.997,110.235 C28.997,110.961 28.409,111.549 27.683,111.549" id="Fill-112" fill="#F0F1F2"></path>
        <path d="M27.683,97.425 L14.178,97.425 C13.452,97.425 12.864,96.837 12.864,96.111 C12.864,95.385 13.452,94.797 14.178,94.797 L27.683,94.797 C28.409,94.797 28.997,95.385 28.997,96.111 C28.997,96.837 28.409,97.425 27.683,97.425" id="Fill-113" fill="#F0F1F2"></path>
        <path d="M41.451,93.94 C40.725,93.94 40.137,93.352 40.137,92.626 L40.137,82.343 C40.137,81.617 40.725,81.029 41.451,81.029 C42.177,81.029 42.765,81.617 42.765,82.343 L42.765,92.626 C42.765,93.352 42.177,93.94 41.451,93.94" id="Fill-114" fill="#F0F1F2"></path>
        <path d="M41.343,83.765 L31.493,83.765 C30.767,83.765 30.179,83.177 30.179,82.451 C30.179,81.725 30.767,81.137 31.493,81.137 L41.343,81.137 C42.068,81.137 42.657,81.725 42.657,82.451 C42.657,83.177 42.068,83.765 41.343,83.765" id="Fill-115" fill="#F0F1F2"></path>
    </g>
</svg>