<?xml version="1.0" encoding="UTF-8"?>
<svg width="181px" height="179px" viewBox="0 0 181 179" version="1.1" xmlns="http://www.w3.org/2000/svg" xmlns:xlink="http://www.w3.org/1999/xlink">
    <title>Artboard</title>
    <g id="Artboard" stroke="none" stroke-width="1" fill="none" fill-rule="evenodd">
        <path d="M130.526,127.677 L130.526,127.677 C128.072,130.13 128.072,134.144 130.526,136.597 L144.65,150.722 C147.103,153.175 151.117,153.175 153.571,150.722 C156.024,148.269 156.024,144.254 153.571,141.801 L139.446,127.677 C136.993,125.224 132.979,125.224 130.526,127.677" id="Fill-14" fill="#F8C823"></path>
        <path d="M88.428,144.188 L88.428,144.188 C84.959,144.188 82.121,147.027 82.121,150.496 L82.121,170.471 C82.121,173.94 84.959,176.779 88.428,176.779 C91.898,176.779 94.736,173.94 94.736,170.471 L94.736,150.496 C94.736,147.027 91.898,144.188 88.428,144.188" id="Fill-15" fill="#F8C823"></path>
        <path d="M88.428,2 L88.428,2 C84.959,2 82.121,4.839 82.121,8.308 L82.121,28.283 C82.121,31.752 84.959,34.591 88.428,34.591 C91.898,34.591 94.736,31.752 94.736,28.283 L94.736,8.308 C94.736,4.839 91.898,2 88.428,2" id="Fill-16" fill="#F8C823"></path>
        <path d="M26.443,28.02 L26.443,28.02 C23.99,30.473 23.99,34.488 26.443,36.941 L40.568,51.065 C43.021,53.518 47.035,53.518 49.488,51.065 C51.941,48.612 51.941,44.598 49.488,42.145 L35.364,28.02 C32.911,25.567 28.896,25.567 26.443,28.02" id="Fill-17" fill="#F8C823"></path>
        <path d="M151.731,23.068 L151.731,23.068 C149.277,20.615 145.263,20.615 142.81,23.068 L128.686,37.193 C126.233,39.646 126.233,43.66 128.686,46.113 C131.139,48.567 135.153,48.567 137.606,46.113 L151.731,31.989 C154.184,29.536 154.184,25.521 151.731,23.068" id="Fill-18" fill="#F8C823"></path>
        <path d="M47.951,125.878 L47.951,125.878 C45.498,123.425 41.483,123.425 39.03,125.878 L24.906,140.003 C22.453,142.456 22.453,146.47 24.906,148.923 C27.359,151.376 31.373,151.376 33.826,148.923 L47.951,134.799 C50.404,132.346 50.404,128.332 47.951,125.878" id="Fill-19" fill="#F8C823"></path>
        <path d="M34.591,86.893 L34.591,86.893 C34.591,83.424 31.752,80.585 28.283,80.585 L8.308,80.585 C4.839,80.585 2,83.424 2,86.893 C2,90.363 4.839,93.201 8.308,93.201 L28.283,93.201 C31.752,93.201 34.591,90.363 34.591,86.893" id="Fill-20" fill="#F8C823"></path>
        <path d="M180.025,82.642 L180.025,82.642 C180.025,79.173 177.187,76.334 173.717,76.334 L153.742,76.334 C150.273,76.334 147.435,79.173 147.435,82.642 C147.435,86.111 150.273,88.95 153.742,88.95 L173.717,88.95 C177.187,88.95 180.025,86.111 180.025,82.642" id="Fill-21" fill="#F8C823"></path>
        <path d="M140.208,88.783 C140.208,115.564 118.498,137.275 91.717,137.275 C64.936,137.275 43.225,115.564 43.225,88.783 C43.225,62.002 64.936,40.292 91.717,40.292 C118.498,40.292 140.208,62.002 140.208,88.783" id="Fill-22" fill="#F8C823"></path>
    </g>
</svg>