<?xml version="1.0" encoding="UTF-8"?>
<svg width="238px" height="117px" viewBox="0 0 238 117" version="1.1" xmlns="http://www.w3.org/2000/svg" xmlns:xlink="http://www.w3.org/1999/xlink">
    <title>Untitled 3@3x</title>
    <g id="Page-1" stroke="none" stroke-width="1" fill="none" fill-rule="evenodd">
        <path d="M200.686,23.355 C193.218,23.355 186.274,25.593 180.478,29.427 C173.425,12.165 156.469,0 136.67,0 C123.755,0 112.058,5.183 103.522,13.573 C117.518,17.11 129.604,26.008 137.131,38.502 C142.424,36.348 148.104,35.231 153.903,35.231 C178.478,35.231 198.471,55.225 198.471,79.799 C198.471,85.762 197.274,91.48 195.112,96.721 L203.428,96.721 C204.1,96.721 204.748,96.612 205.356,96.414 C223.409,94.119 237.369,78.714 237.369,60.038 C237.369,39.779 220.946,23.355 200.686,23.355" id="Fill-12" fill="#C7C7C3"></path>
        <path d="M190.586,79.799 C190.586,59.54 174.163,43.116 153.903,43.116 C146.434,43.116 139.491,45.354 133.695,49.188 C126.642,31.926 109.686,19.761 89.887,19.761 C65.062,19.761 44.705,38.883 42.736,63.201 C38.553,60.795 33.707,59.412 28.535,59.412 C12.776,59.412 0,72.187 0,87.947 C0,100.951 8.702,111.915 20.598,115.354 C21.618,116.063 22.852,116.482 24.18,116.482 L156.645,116.482 C157.317,116.482 157.964,116.372 158.573,116.175 C176.626,113.88 190.586,98.475 190.586,79.799" id="Fill-13" fill="#F0F1F2"></path>
    </g>
</svg>