<?xml version="1.0" encoding="UTF-8"?>
<svg width="239px" height="143px" viewBox="0 0 239 143" version="1.1" xmlns="http://www.w3.org/2000/svg" xmlns:xlink="http://www.w3.org/1999/xlink">
    <title>Untitled 3@3x</title>
    <g id="Page-1" stroke="none" stroke-width="1" fill="none" fill-rule="evenodd">
        <path d="M238.592,60.037 C238.592,39.778 222.169,23.355 201.909,23.355 C194.44,23.355 187.497,25.593 181.701,29.426 C174.648,12.165 157.692,0 137.893,0 C113.068,0 92.711,19.121 90.742,43.439 C86.559,41.033 81.713,39.65 76.541,39.65 C60.782,39.65 48.006,52.426 48.006,68.185 C48.006,81.189 56.708,92.154 68.604,95.593 C69.624,96.301 70.858,96.72 72.186,96.72 L204.651,96.72 C205.323,96.72 205.97,96.611 206.579,96.414 C224.632,94.118 238.592,78.714 238.592,60.037" id="Fill-65" fill="#F0F1F2"></path>
        <polyline id="Fill-66" fill="#2B8FB8" points="192.389 112.25 108.985 109.75 192.389 107.25 192.389 112.25"></polyline>
        <polyline id="Fill-67" fill="#2B8FB8" points="105.481 112.25 76.395 109.75 105.481 107.25 105.481 112.25"></polyline>
        <polyline id="Fill-68" fill="#2B8FB8" points="205.355 128.72 93.216 126.22 205.355 123.72 205.355 128.72"></polyline>
        <polyline id="Fill-69" fill="#2B8FB8" points="89.01 128.72 56.42 126.22 89.01 123.72 89.01 128.72"></polyline>
        <polyline id="Fill-70" fill="#2B8FB8" points="177.495 141.686 87.784 139.186 177.495 136.686 177.495 141.686"></polyline>
        <polyline id="Fill-71" fill="#2B8FB8" points="82.002 142.387 44.505 139.887 82.002 137.387 82.002 142.387"></polyline>
        <polyline id="Fill-72" fill="#2B8FB8" points="46.608 128.72 32.941 126.22 46.608 123.72 46.608 128.72"></polyline>
        <polyline id="Fill-73" fill="#2B8FB8" points="71.664 112.25 49.236 109.75 71.664 107.25 71.664 112.25"></polyline>
        <polyline id="Fill-74" fill="#2B8FB8" points="215.167 141.686 181.876 139.186 215.167 136.686 215.167 141.686"></polyline>
        <polyline id="Fill-75" fill="#2B8FB8" points="37.496 142.387 0 139.887 37.496 137.387 37.496 142.387"></polyline>
    </g>
</svg>