<?xml version="1.0" encoding="UTF-8"?>
<svg width="191px" height="181px" viewBox="0 0 191 181" version="1.1" xmlns="http://www.w3.org/2000/svg" xmlns:xlink="http://www.w3.org/1999/xlink">
    <title>Untitled 3@3x</title>
    <g id="Page-1" stroke="none" stroke-width="1" fill="none" fill-rule="evenodd">
        <path d="M190.586,60.037 C190.586,39.778 174.163,23.355 153.903,23.355 C146.434,23.355 139.491,25.592 133.695,29.426 C126.642,12.164 109.686,0 89.887,0 C65.062,0 44.705,19.121 42.736,43.439 C38.553,41.033 33.707,39.65 28.535,39.65 C12.776,39.65 0,52.425 0,68.185 C0,81.189 8.702,92.153 20.598,95.593 C21.618,96.301 22.852,96.72 24.18,96.72 L156.645,96.72 C157.317,96.72 157.964,96.611 158.573,96.414 C176.626,94.118 190.586,78.713 190.586,60.037" id="Fill-61" fill="#C7C7C3"></path>
        <polyline id="Fill-62" fill="#F8C823" points="31.84 109.13 14.188 142.822 31.84 142.822 16.204 180.093 42.664 138.142 29.726 138.572 48.545 109.13 31.84 109.13"></polyline>
        <polyline id="Fill-63" fill="#F8C823" points="88.264 109.13 70.612 142.822 88.264 142.822 72.627 180.093 99.087 138.142 86.149 138.572 104.968 109.13 88.264 109.13"></polyline>
        <polyline id="Fill-64" fill="#F8C823" points="143.009 109.13 125.357 142.822 143.009 142.822 127.373 180.093 153.833 138.142 140.895 138.572 159.714 109.13 143.009 109.13"></polyline>
    </g>
</svg>