<?xml version="1.0" encoding="UTF-8"?>
<svg width="227px" height="173px" viewBox="0 0 227 173" version="1.1" xmlns="http://www.w3.org/2000/svg" xmlns:xlink="http://www.w3.org/1999/xlink">
    <title>Untitled 4@3x</title>
    <g id="Page-1" stroke="none" stroke-width="1" fill="none" fill-rule="evenodd">
        <g id="cloudwithsunbehind" fill-rule="nonzero">
            <path d="M86.428,0 L86.428,0 C82.958,0 80.12,2.839 80.12,6.308 L80.12,26.283 C80.12,29.752 82.958,32.591 86.428,32.591 C89.897,32.591 92.736,29.752 92.736,26.283 L92.736,6.308 C92.736,2.839 89.897,0 86.428,0" id="Fill-4" fill="#F8C823"></path>
            <path d="M24.443,26.02 L24.443,26.02 C21.989,28.473 21.989,32.488 24.443,34.941 L38.567,49.065 C41.02,51.518 45.034,51.518 47.487,49.065 C49.941,46.612 49.941,42.598 47.487,40.144 L33.363,26.02 C30.91,23.567 26.896,23.567 24.443,26.02" id="Fill-5" fill="#F8C823"></path>
            <path d="M146.053,23.776 L146.053,23.776 C143.6,21.322 139.585,21.322 137.132,23.776 L123.008,37.9 C120.555,40.353 120.555,44.367 123.008,46.821 C125.461,49.274 129.475,49.274 131.928,46.821 L146.053,32.696 C148.506,30.243 148.506,26.229 146.053,23.776" id="Fill-6" fill="#F8C823"></path>
            <path d="M32.59,84.893 L32.59,84.893 C32.59,81.424 29.751,78.585 26.282,78.585 L6.307,78.585 C2.838,78.585 0,81.424 0,84.893 C0,88.362 2.838,91.201 6.307,91.201 L26.282,91.201 C29.751,91.201 32.59,88.362 32.59,84.893" id="Fill-7" fill="#F8C823"></path>
            <path d="M64.595,107.768 C67.336,107.768 70.061,108.079 72.715,108.686 C75.411,98.841 80.815,89.887 88.441,82.82 C98.671,73.339 111.991,68.117 125.947,68.117 C126.977,68.117 128,68.152 129.019,68.208 C122.352,51.203 105.797,39.161 86.428,39.161 C61.171,39.161 40.696,59.636 40.696,84.893 C40.696,94.711 43.791,103.806 49.057,111.257 C53.773,109.023 59.039,107.768 64.595,107.768" id="Fill-8" fill="#F8C823"></path>
            <path d="M167.358,86.783 C169.852,85.94 171.663,83.578 171.663,80.809 C171.663,77.34 168.824,74.501 165.355,74.501 L151.796,74.501 C157.666,77.604 162.941,81.76 167.358,86.783" id="Fill-9" fill="#F8C823"></path>
            <path d="M28.175,144.188 C28.175,137.951 29.753,132.078 32.527,126.941 L22.779,136.688 C20.326,139.142 20.326,143.156 22.779,145.609 C24.28,147.11 26.364,147.688 28.318,147.352 C28.226,146.306 28.175,145.251 28.175,144.188" id="Fill-10" fill="#F8C823"></path>
            <path d="M226.646,136.04 C226.646,115.781 210.222,99.357 189.963,99.357 C182.494,99.357 175.551,101.595 169.755,105.429 C162.702,88.167 145.746,76.002 125.947,76.002 C101.122,76.002 80.765,95.124 78.796,119.441 C74.613,117.036 69.767,115.653 64.595,115.653 C48.835,115.653 36.06,128.428 36.06,144.188 C36.06,157.192 44.762,168.156 56.658,171.595 C57.678,172.304 58.911,172.723 60.24,172.723 L192.705,172.723 C193.377,172.723 194.024,172.613 194.633,172.416 C212.686,170.121 226.646,154.716 226.646,136.04" id="Fill-11" fill="#F0F1F2"></path>
        </g>
    </g>
</svg>